HIERARCHY
ROOT hip
{
  OFFSET 0 0 0
  CHANNELS 6 Xposition Yposition Zposition Zrotation Yrotation Xrotation
  JOINT abdomen
  {
    OFFSET 0 20.6881 -0.73152
    CHANNELS 3 Zrotation Xrotation Yrotation
    JOINT chest
    {
      OFFSET 0 11.7043 -0.48768
      CHANNELS 3 Zrotation Xrotation Yrotation
      JOINT neck
      {
        OFFSET 0 22.1894 -2.19456
        CHANNELS 3 Zrotation Xrotation Yrotation
        JOINT head
        {
          OFFSET -0.24384 7.07133 1.2192
          CHANNELS 3 Zrotation Xrotation Yrotation
          JOINT leftEye
          {
            OFFSET 4.14528 8.04674 8.04672
            CHANNELS 3 Zrotation Xrotation Yrotation
            End Site
            {
              OFFSET 1 0 0
            }
          }
          JOINT rightEye
          {
            OFFSET -3.6576 8.04674 8.04672
            CHANNELS 3 Zrotation Xrotation Yrotation
            End Site
            {
              OFFSET 1 0 0
            }
          }
        }
      }
      JOINT rCollar
      {
        OFFSET -2.68224 19.2634 -4.8768
        CHANNELS 3 Zrotation Xrotation Yrotation
        JOINT rShldr
        {
          OFFSET -8.77824 -1.95073 1.46304
          CHANNELS 3 Zrotation Xrotation Yrotation
          JOINT rForeArm
          {
            OFFSET -28.1742 -1.7115 0.48768
            CHANNELS 3 Zrotation Xrotation Yrotation
            JOINT rHand
            {
              OFFSET -22.5879 0.773209 7.07136
              CHANNELS 3 Zrotation Xrotation Yrotation
              JOINT rThumb1
              {
                OFFSET -1.2192 -0.487915 3.41376
                CHANNELS 3 Zrotation Xrotation Yrotation
                JOINT rThumb2
                {
                  OFFSET -3.37035 -0.52449 3.41376
                  CHANNELS 3 Zrotation Xrotation Yrotation
                  End Site
                  {
                    OFFSET -1.78271 -1.18214 1.43049
                  }
                }
              }
              JOINT rIndex1
              {
                OFFSET -7.75947 0.938293 5.60832
                CHANNELS 3 Zrotation Xrotation Yrotation
                JOINT rIndex2
                {
                  OFFSET -2.54057 -0.884171 1.56538
                  CHANNELS 3 Zrotation Xrotation Yrotation
                  End Site
                  {
                    OFFSET -1.62519 -0.234802 1.16502
                  }
                }
              }
              JOINT rMid1
              {
                OFFSET -8.24714 1.18213 3.41376
                CHANNELS 3 Zrotation Xrotation Yrotation
                JOINT rMid2
                {
                  OFFSET -3.10165 -0.590103 1.0647
                  CHANNELS 3 Zrotation Xrotation Yrotation
                  End Site
                  {
                    OFFSET -2.48547 -0.328903 0.83742
                  }
                }
              }
              JOINT rRing1
              {
                OFFSET -8.82822 0.546677 1.51678
                CHANNELS 3 Zrotation Xrotation Yrotation
                JOINT rRing2
                {
                  OFFSET -2.60934 -0.819778 -0.0198488
                  CHANNELS 3 Zrotation Xrotation Yrotation
                  End Site
                  {
                    OFFSET -2.33842 -0.294052 0.168128
                  }
                }
              }
              JOINT rPinky1
              {
                OFFSET -8.27202 -0.0477905 -0.4584
                CHANNELS 3 Zrotation Xrotation Yrotation
                JOINT rPinky2
                {
                  OFFSET -1.82734 -0.647385 -0.700984
                  CHANNELS 3 Zrotation Xrotation Yrotation
                  End Site
                  {
                    OFFSET -1.69225 -0.51767 -0.607171
                  }
                }
              }
            }
          }
        }
      }
      JOINT lCollar
      {
        OFFSET 2.68224 19.2634 -4.8768
        CHANNELS 3 Zrotation Xrotation Yrotation
        JOINT lShldr
        {
          OFFSET 8.77824 -1.95073 1.46304
          CHANNELS 3 Zrotation Xrotation Yrotation
          JOINT lForeArm
          {
            OFFSET 28.1742 -1.7115 0.48768
            CHANNELS 3 Zrotation Xrotation Yrotation
            JOINT lHand
            {
              OFFSET 22.5879 0.773209 7.07136
              CHANNELS 3 Zrotation Xrotation Yrotation
              JOINT lThumb1
              {
                OFFSET 1.2192 -0.487915 3.41376
                CHANNELS 3 Zrotation Xrotation Yrotation
                JOINT lThumb2
                {
                  OFFSET 3.37035 -0.52449 3.41376
                  CHANNELS 3 Zrotation Xrotation Yrotation
                  End Site
                  {
                    OFFSET 1.78271 -1.18214 1.43049
                  }
                }
              }
              JOINT lIndex1
              {
                OFFSET 7.75947 0.938293 5.60832
                CHANNELS 3 Zrotation Xrotation Yrotation
                JOINT lIndex2
                {
                  OFFSET 2.54057 -0.884171 1.56538
                  CHANNELS 3 Zrotation Xrotation Yrotation
                  End Site
                  {
                    OFFSET 1.62519 -0.234802 1.16502
                  }
                }
              }
              JOINT lMid1
              {
                OFFSET 8.24714 1.18213 3.41376
                CHANNELS 3 Zrotation Xrotation Yrotation
                JOINT lMid2
                {
                  OFFSET 3.10165 -0.590103 1.0647
                  CHANNELS 3 Zrotation Xrotation Yrotation
                  End Site
                  {
                    OFFSET 2.48547 -0.328903 0.83742
                  }
                }
              }
              JOINT lRing1
              {
                OFFSET 8.82822 0.546677 1.51678
                CHANNELS 3 Zrotation Xrotation Yrotation
                JOINT lRing2
                {
                  OFFSET 2.60934 -0.819778 -0.0198488
                  CHANNELS 3 Zrotation Xrotation Yrotation
                  End Site
                  {
                    OFFSET 2.33842 -0.294052 0.168128
                  }
                }
              }
              JOINT lPinky1
              {
                OFFSET 8.27202 -0.0477905 -0.4584
                CHANNELS 3 Zrotation Xrotation Yrotation
                JOINT lPinky2
                {
                  OFFSET 1.82734 -0.647385 -0.700984
                  CHANNELS 3 Zrotation Xrotation Yrotation
                  End Site
                  {
                    OFFSET 1.69225 -0.51767 -0.607171
                  }
                }
              }
            }
          }
        }
      }
    }
  }
  JOINT rButtock
  {
    OFFSET -8.77824 4.35084 1.2192
    CHANNELS 3 Zrotation Xrotation Yrotation
    JOINT rThigh
    {
      OFFSET 0 -1.70687 -2.19456
      CHANNELS 3 Zrotation Xrotation Yrotation
      JOINT rShin
      {
        OFFSET 0 -36.8199 0.73152
        CHANNELS 3 Zrotation Xrotation Yrotation
        JOINT rFoot
        {
          OFFSET 0.73152 -45.1104 -5.12064
          CHANNELS 3 Zrotation Xrotation Yrotation
          End Site
          {
            OFFSET -1.1221 -3.69964 12.103
          }
        }
      }
    }
  }
  JOINT lButtock
  {
    OFFSET 8.77824 4.35084 1.2192
    CHANNELS 3 Zrotation Xrotation Yrotation
    JOINT lThigh
    {
      OFFSET 0 -1.70687 -2.19456
      CHANNELS 3 Zrotation Xrotation Yrotation
      JOINT lShin
      {
        OFFSET 0 -36.8199 0.73152
        CHANNELS 3 Zrotation Xrotation Yrotation
        JOINT lFoot
        {
          OFFSET -0.73152 -45.1104 -5.12064
          CHANNELS 3 Zrotation Xrotation Yrotation
          End Site
          {
            OFFSET 1.1221 -3.69964 12.103
          }
        }
      }
    }
  }
}
MOTION
Frames:	7
Frame Time:	0.00833333
-50.6852 85.3982 223.919 0.0 0.0 0.0 1.5751 -0.00270736 0.0428977 0.434182 0.00151754 0.0751901 7.53992e-14 0.0 2.98178e-16 2.26568e-13 3.18055e-15 1.13991e-15 -0.0 0.0 0.0 -0.0 0.0 0.0 3.77684e-14 -9.84217e-17 2.98177e-16 7.94986e-13 -2.12451e-15 7.35503e-15 1.36505e-11 -4.14983e-12 -5.40694e-14 1.56087e-10 3.71047e-12 1.00187e-12 3.68204e-10 -9.54004e-13 2.05464e-12 6.35854e-10 -1.65389e-12 3.52485e-12 3.68208e-10 -9.54564e-13 2.0451e-12 7.73091 5.47488 0.417314 3.68203e-10 -9.54067e-13 2.05146e-12 2.90554 0.965183 0.102902 3.68204e-10 -9.53968e-13 2.04907e-12 10.2786 0.731801 0.0259123 3.68198e-10 -9.54962e-13 2.061e-12 2.22167 -0.733487 -0.20892 3.76728e-14 -9.76452e-17 0.0 7.91389e-13 -2.24875e-15 5.76476e-15 1.36298e-11 4.01724e-12 -2.54444e-14 1.56111e-10 -4.45939e-12 1.00187e-12 3.68211e-10 -9.58995e-13 2.05464e-12 6.35898e-10 -1.65071e-12 3.53042e-12 3.68206e-10 -9.5854e-13 2.061e-12 -7.73091 5.47488 -0.417314 3.68211e-10 -9.5854e-13 2.05464e-12 -2.90554 0.965183 -0.102902 3.68208e-10 -9.59335e-13 2.05146e-12 -10.2786 0.731801 -0.0259123 3.68214e-10 -9.57347e-13 2.04192e-12 -2.22167 -0.733487 0.20892 -2.03217e-16 0.0 -3.88251e-19 1.70377 -6.60414 -0.159275 0.00259425 6.39989 0.0734299 -0.52688 0.19965 0.0639561 2.03217e-16 0.0 3.88251e-19 0.69117 -1.9236 0.00559589 0.00918372 -2.07857 0.0758007 0.503868 3.99746 -0.139089
-49.4527 83.3963 214.98 179.794 15.7206 -172.243 2.47056 0.777411 0.748834 1.39183 -1.29436 0.334169 0.500035 0.88745 0.770276 -1.5129 -3.1683 1.34276 -0.0 0.0 0.0 -0.0 0.0 0.0 1.9706e-14 9.82666e-14 8.67351e-16 20.5667 4.49438 0.0145099 -5.59126 -2.89029 8.31971 0.00118084 0.762619 0.107145 -1.37636e-10 1.68309e-09 -9.40834e-11 -2.40189e-10 2.91371e-09 -1.60174e-10 -1.37632e-10 1.68309e-09 -9.4093e-11 7.73091 5.47488 0.417314 -1.37637e-10 1.68309e-09 -9.40857e-11 2.90554 0.965183 0.102902 -1.37634e-10 1.68309e-09 -9.40878e-11 10.2786 0.731801 0.0259123 -1.3764e-10 1.68309e-09 -9.40773e-11 2.22167 -0.733487 -0.20892 1.95914e-14 9.82631e-14 5.8393e-16 -22.6467 6.95935 -0.617265 4.65866 -2.21207 -7.17002 -0.0131579 2.54489 -0.356387 -2.3287e-10 1.64523e-10 6.73488e-10 -3.97843e-10 2.93553e-10 1.16916e-09 -2.32878e-10 1.64522e-10 6.73495e-10 -7.73091 5.47488 -0.417314 -2.3287e-10 1.64523e-10 6.73487e-10 -2.90554 0.965183 -0.102902 -2.32873e-10 1.64522e-10 6.73483e-10 -10.2786 0.731801 -0.0259123 -2.32865e-10 1.64524e-10 6.73473e-10 -2.22167 -0.733487 0.20892 -2.03217e-16 0.0 -3.88251e-19 2.85269 -9.95234 -1.44534 0.0409786 13.4375 0.245975 -1.4706 -4.0131 -6.10493 2.03217e-16 0.0 3.88251e-19 2.90267 -11.1502 -0.611054 -0.00780032 9.19398 -0.0915636 0.429381 0.526487 -0.890971
-49.4668 83.396 214.974 179.769 15.5543 -172.258 3.39506 1.60298 1.4961 2.4199 -2.66767 0.608863 0.995594 1.83686 1.58597 -2.93987 -6.52139 2.78008 -0.0 0.0 0.0 -0.0 0.0 0.0 -8.02585e-16 2.07989e-13 1.64184e-14 42.3028 9.24276 0.0246127 -10.5971 -5.7409 17.179 -0.000676379 1.57154 0.22086 -7.44426e-10 3.69867e-09 -1.66585e-10 -1.29088e-09 6.40291e-09 -2.82422e-10 -7.44424e-10 3.69867e-09 -1.66594e-10 7.73091 5.47488 0.417314 -7.44427e-10 3.69867e-09 -1.66586e-10 2.90554 0.965183 0.102902 -7.44423e-10 3.69867e-09 -1.66588e-10 10.2786 0.731801 0.0259123 -7.44429e-10 3.69867e-09 -1.66579e-10 2.22167 -0.733487 -0.20892 -9.39897e-16 2.07981e-13 1.61513e-14 -46.4228 14.3137 -1.29668 8.98734 -4.43565 -14.785 0.00748643 5.23457 -0.735441 -9.43196e-10 3.27253e-10 1.44086e-09 -1.61963e-09 5.85649e-10 2.50167e-09 -9.43207e-10 3.2725e-10 1.44086e-09 -7.73091 5.47488 -0.417314 -9.43195e-10 3.27251e-10 1.44085e-09 -2.90554 0.965183 -0.102902 -9.43199e-10 3.2725e-10 1.44085e-09 -10.2786 0.731801 -0.0259123 -9.43187e-10 3.27253e-10 1.44084e-09 -2.22167 -0.733487 0.20892 -2.03217e-16 0.0 -3.88251e-19 3.89674 -13.4834 -2.83948 0.0322241 20.8768 0.444118 -3.45491 -8.30525 -12.729 2.03217e-16 0.0 3.88251e-19 5.0086 -20.8992 -1.32592 0.0497611 21.1099 -0.285138 0.25212 -3.14196 -1.68484
-49.4636 83.3973 214.97 179.774 15.5665 -172.276 4.20378 2.33618 2.1623 3.34236 -3.88574 0.853832 1.42848 2.66042 2.31305 -4.08835 -9.48387 4.07794 -0.0 0.0 0.0 -0.0 0.0 0.0 -1.64189e-14 2.94997e-13 2.0057e-15 61.6931 13.4831 0.0446257 -14.3241 -7.94107 25.1852 -0.00501996 2.28783 0.321662 -1.14932e-09 5.05118e-09 -2.86359e-10 -1.99227e-09 8.74443e-09 -4.87573e-10 -1.14931e-09 5.05118e-09 -2.86369e-10 7.73091 5.47488 0.417314 -1.14932e-09 5.05118e-09 -2.8636e-10 2.90554 0.965183 0.102902 -1.14931e-09 5.05118e-09 -2.86361e-10 10.2786 0.731801 0.0259123 -1.14932e-09 5.05118e-09 -2.86354e-10 2.22167 -0.733487 -0.20892 -1.65715e-14 2.94985e-13 1.75179e-15 -67.4635 20.868 -1.96724 12.3502 -6.22141 -21.6277 0.0562207 7.63348 -1.07766 -1.43503e-09 4.95488e-10 2.01635e-09 -2.46533e-09 8.83961e-10 3.50043e-09 -1.43505e-09 4.95484e-10 2.01636e-09 -7.73091 5.47488 -0.417314 -1.43503e-09 4.95485e-10 2.01635e-09 -2.90554 0.965183 -0.102902 -1.43504e-09 4.95484e-10 2.01635e-09 -10.2786 0.731801 -0.0259123 -1.43502e-09 4.95488e-10 2.01633e-09 -2.22167 -0.733487 0.20892 -2.03217e-16 0.0 -3.88251e-19 4.68136 -16.6172 -4.12695 -0.0249457 27.5115 0.644683 -6.07661 -11.8582 -18.8137 2.03217e-16 0.0 3.88251e-19 6.65256 -29.589 -2.08126 0.181278 31.7382 -0.496983 0.00599327 -6.40966 -2.41037
-49.4483 83.3981 214.962 179.74 15.4953 -172.304 4.76399 2.83986 2.62428 3.97565 -4.71604 1.02287 1.75687 3.17127 2.81632 -4.86466 -11.4903 4.97881 -0.0 0.0 0.0 -0.0 0.0 0.0 -1.98044e-14 3.25218e-13 -8.73162e-14 75.2191 16.4534 0.0893435 -16.5505 -9.20888 30.8434 -0.00943693 2.77253 0.389961 -1.04946e-09 4.74601e-09 -5.24318e-10 -1.82042e-09 8.21674e-09 -8.99981e-10 -1.04945e-09 4.74601e-09 -5.24327e-10 7.73091 5.47488 0.417314 -1.04946e-09 4.74601e-09 -5.24318e-10 2.90554 0.965183 0.102902 -1.04945e-09 4.74601e-09 -5.24318e-10 10.2786 0.731801 0.0259123 -1.04946e-09 4.74601e-09 -5.24311e-10 2.22167 -0.733487 -0.20892 -1.99538e-14 3.25204e-13 -8.75646e-14 -82.0062 25.4312 -2.50815 14.432 -7.30835 -26.4273 0.107421 9.30661 -1.3197 -1.38065e-09 6.77487e-10 2.11218e-09 -2.37078e-09 1.19781e-09 3.66485e-09 -1.38066e-09 6.77483e-10 2.11219e-09 -7.73091 5.47488 -0.417314 -1.38064e-09 6.77485e-10 2.11217e-09 -2.90554 0.965183 -0.102902 -1.38065e-09 6.77484e-10 2.11217e-09 -10.2786 0.731801 -0.0259123 -1.38063e-09 6.77487e-10 2.11216e-09 -2.22167 -0.733487 0.20892 -2.03217e-16 0.0 -3.88251e-19 5.15386 -18.7854 -5.05649 -0.0977528 32.1352 0.804626 -8.37769 -14.1173 -23.1936 2.03217e-16 0.0 3.88251e-19 7.6385 -35.6441 -2.72057 0.333865 39.1479 -0.685918 -0.220473 -8.68118 -2.94612
-49.4088 83.3977 214.985 179.759 15.4128 -172.302 4.99584 3.02056 2.80001 4.18828 -4.99655 1.08415 1.98292 3.22308 3.00258 -5.29581 -12.1496 5.27853 -0.0 0.0 0.0 -0.0 0.0 0.0 -1.90164e-15 2.73068e-13 -3.32575e-13 80.5371 17.6403 0.177202 -17.3579 -9.64526 33.1023 -0.0112318 2.93066 0.412265 -4.80669e-11 1.51814e-09 -1.06892e-09 -8.92756e-11 2.63037e-09 -1.84791e-09 -4.80664e-11 1.51814e-09 -1.06893e-09 7.73091 5.47488 0.417314 -4.80678e-11 1.51814e-09 -1.06892e-09 2.90554 0.965183 0.102902 -4.80599e-11 1.51814e-09 -1.06892e-09 10.2786 0.731801 0.0259123 -4.80706e-11 1.51814e-09 -1.06891e-09 2.22167 -0.733487 -0.20892 -2.01471e-15 2.73056e-13 -3.32832e-13 -87.6173 27.2146 -2.79194 15.1871 -7.6877 -28.3022 0.131432 9.96358 -1.41567 -3.65496e-10 9.42066e-10 1.42368e-09 -6.21992e-10 1.6401e-09 2.46421e-09 -3.6551e-10 9.42064e-10 1.42369e-09 -7.73091 5.47488 -0.417314 -3.65493e-10 9.42066e-10 1.42368e-09 -2.90554 0.965183 -0.102902 -3.655e-10 9.42065e-10 1.42367e-09 -10.2786 0.731801 -0.0259123 -3.65484e-10 9.42068e-10 1.42366e-09 -2.22167 -0.733487 0.20892 -2.03217e-16 0.0 -3.88251e-19 5.34887 -19.6208 -5.42709 -0.13526 33.9446 0.873797 -9.39903 -14.9573 -24.9662 2.03217e-16 0.0 3.88251e-19 7.99894 -38.0244 -3.00887 0.411873 42.0526 -0.774222 -0.333613 -9.56147 -3.20524
-49.3782 83.3982 214.997 179.765 15.3489 -172.315 4.99716 2.97095 2.77094 4.09821 -4.88474 1.06819 2.13911 2.94839 2.96224 -5.51064 -11.8516 5.14048 -0.0 0.0 0.0 -0.0 0.0 0.0 3.10086e-14 1.62218e-13 -6.86785e-13 79.9948 17.5536 0.294579 -17.2956 -9.62362 32.9086 -0.010591 2.85565 0.401691 1.58799e-09 -3.76872e-09 -1.82583e-09 2.73962e-09 -6.51973e-09 -3.16667e-09 1.58799e-09 -3.76872e-09 -1.82583e-09 7.73091 5.47488 0.417314 1.58799e-09 -3.76872e-09 -1.82583e-09 2.90554 0.965183 0.102902 1.588e-09 -3.76872e-09 -1.82582e-09 10.2786 0.731801 0.0259123 1.58798e-09 -3.76872e-09 -1.82581e-09 2.22167 -0.733487 -0.20892 3.09553e-14 1.62211e-13 -6.87062e-13 -86.8993 27.0148 -2.86324 15.0947 -7.63857 -28.0728 0.12877 9.895 -1.40562 1.32658e-09 1.26262e-09 1.80319e-10 2.29231e-09 2.16904e-09 2.97904e-10 1.32657e-09 1.26262e-09 1.80338e-10 -7.73091 5.47488 -0.417314 1.32658e-09 1.26262e-09 1.80319e-10 -2.90554 0.965183 -0.102902 1.32658e-09 1.26262e-09 1.80315e-10 -10.2786 0.731801 -0.0259123 1.32659e-09 1.26262e-09 1.80305e-10 -2.22167 -0.733487 0.20892 -2.03217e-16 0.0 -3.88251e-19 5.38339 -19.5092 -5.38317 -0.131702 33.7439 0.867357 -9.31664 -14.8987 -24.8182 2.03217e-16 0.0 3.88251e-19 8.00009 -37.7834 -2.9823 0.402896 41.7398 -0.764482 -0.343701 -9.44946 -3.2611
